<mxfile host="app.diagrams.net" modified="2024-06-11T18:03:48.319Z" agent="Mozilla/5.0 (Windows NT 10.0; Win64; x64; rv:126.0) Gecko/20100101 Firefox/126.0" etag="g6tKGcaNvqBVqdsRhqIg" version="24.5.2" type="device">
  <diagram name="Page-1" id="LvEjzc0pnNIe1wX_6y4k">
    <mxGraphModel dx="2074" dy="1134" grid="1" gridSize="10" guides="1" tooltips="1" connect="1" arrows="1" fold="1" page="1" pageScale="1" pageWidth="850" pageHeight="1100" math="0" shadow="0">
      <root>
        <mxCell id="0" />
        <mxCell id="1" parent="0" />
        <mxCell id="bT-4DgMdLID0IDF00oh7-4" style="edgeStyle=orthogonalEdgeStyle;rounded=0;orthogonalLoop=1;jettySize=auto;html=1;entryX=0;entryY=0.5;entryDx=0;entryDy=0;" edge="1" parent="1" source="bT-4DgMdLID0IDF00oh7-1" target="bT-4DgMdLID0IDF00oh7-2">
          <mxGeometry relative="1" as="geometry" />
        </mxCell>
        <mxCell id="bT-4DgMdLID0IDF00oh7-2" value="OPC UA Server" style="whiteSpace=wrap;html=1;" vertex="1" parent="1">
          <mxGeometry x="360" y="300" width="130" height="90" as="geometry" />
        </mxCell>
        <mxCell id="bT-4DgMdLID0IDF00oh7-19" style="edgeStyle=orthogonalEdgeStyle;rounded=0;orthogonalLoop=1;jettySize=auto;html=1;exitX=1;exitY=0.5;exitDx=0;exitDy=0;entryX=1;entryY=0.5;entryDx=0;entryDy=0;" edge="1" parent="1" source="bT-4DgMdLID0IDF00oh7-5" target="bT-4DgMdLID0IDF00oh7-15">
          <mxGeometry relative="1" as="geometry">
            <mxPoint x="620" y="620" as="targetPoint" />
          </mxGeometry>
        </mxCell>
        <mxCell id="bT-4DgMdLID0IDF00oh7-5" value="" style="whiteSpace=wrap;html=1;" vertex="1" parent="1">
          <mxGeometry x="560" y="240" width="240" height="210" as="geometry" />
        </mxCell>
        <mxCell id="bT-4DgMdLID0IDF00oh7-8" value="&lt;div&gt;BaSyx&lt;/div&gt;&lt;div&gt;Python SDK&lt;br&gt;&lt;/div&gt;" style="whiteSpace=wrap;html=1;" vertex="1" parent="1">
          <mxGeometry x="692.5" y="315" width="80" height="60" as="geometry" />
        </mxCell>
        <mxCell id="bT-4DgMdLID0IDF00oh7-17" style="edgeStyle=orthogonalEdgeStyle;rounded=0;orthogonalLoop=1;jettySize=auto;html=1;exitX=1;exitY=0.5;exitDx=0;exitDy=0;entryX=0;entryY=0.5;entryDx=0;entryDy=0;" edge="1" parent="1" source="bT-4DgMdLID0IDF00oh7-12" target="bT-4DgMdLID0IDF00oh7-8">
          <mxGeometry relative="1" as="geometry" />
        </mxCell>
        <mxCell id="bT-4DgMdLID0IDF00oh7-12" value="OPC UA Client" style="whiteSpace=wrap;html=1;" vertex="1" parent="1">
          <mxGeometry x="590" y="315" width="80" height="60" as="geometry" />
        </mxCell>
        <mxCell id="bT-4DgMdLID0IDF00oh7-13" value="" style="group" vertex="1" connectable="0" parent="1">
          <mxGeometry x="40" y="190" width="240" height="260" as="geometry" />
        </mxCell>
        <mxCell id="bT-4DgMdLID0IDF00oh7-1" value="[Bild von Laborkrempellinie]" style="whiteSpace=wrap;html=1;" vertex="1" parent="bT-4DgMdLID0IDF00oh7-13">
          <mxGeometry y="50" width="240" height="210" as="geometry" />
        </mxCell>
        <mxCell id="bT-4DgMdLID0IDF00oh7-7" value="Laborkrempellinie" style="text;strokeColor=none;align=center;fillColor=none;html=1;verticalAlign=middle;whiteSpace=wrap;rounded=0;fontSize=19;fontStyle=1" vertex="1" parent="bT-4DgMdLID0IDF00oh7-13">
          <mxGeometry x="35" width="170" height="60" as="geometry" />
        </mxCell>
        <mxCell id="bT-4DgMdLID0IDF00oh7-14" value="&lt;div&gt;Entwickelte&lt;/div&gt;&lt;div&gt;Python Schnittstelle&lt;br&gt;&lt;/div&gt;" style="text;strokeColor=none;align=center;fillColor=none;html=1;verticalAlign=middle;whiteSpace=wrap;rounded=0;fontSize=19;fontStyle=1" vertex="1" parent="1">
          <mxGeometry x="587.5" y="180" width="185" height="60" as="geometry" />
        </mxCell>
        <mxCell id="bT-4DgMdLID0IDF00oh7-27" style="edgeStyle=orthogonalEdgeStyle;rounded=0;orthogonalLoop=1;jettySize=auto;html=1;entryX=1;entryY=0.5;entryDx=0;entryDy=0;" edge="1" parent="1" source="bT-4DgMdLID0IDF00oh7-15" target="bT-4DgMdLID0IDF00oh7-25">
          <mxGeometry relative="1" as="geometry" />
        </mxCell>
        <mxCell id="bT-4DgMdLID0IDF00oh7-15" value="" style="whiteSpace=wrap;html=1;" vertex="1" parent="1">
          <mxGeometry x="560" y="550" width="240" height="210" as="geometry" />
        </mxCell>
        <mxCell id="bT-4DgMdLID0IDF00oh7-18" value="&lt;div style=&quot;font-size: 18px;&quot;&gt;&lt;font style=&quot;font-size: 18px;&quot;&gt;CouchDB&lt;/font&gt;&lt;/div&gt;&lt;div style=&quot;font-size: 18px;&quot;&gt;&lt;font style=&quot;font-size: 18px;&quot;&gt;(Verwaltungsschalen-&lt;/font&gt;&lt;/div&gt;&lt;div style=&quot;font-size: 18px;&quot;&gt;&lt;font style=&quot;font-size: 18px;&quot;&gt;&lt;font style=&quot;font-size: 18px;&quot;&gt;Datenbank)&lt;/font&gt;&lt;font style=&quot;font-size: 18px;&quot;&gt;&lt;br&gt;&lt;/font&gt;&lt;/font&gt;&lt;/div&gt;" style="text;strokeColor=none;align=center;fillColor=none;html=1;verticalAlign=middle;whiteSpace=wrap;rounded=0;fontSize=19;fontStyle=1" vertex="1" parent="1">
          <mxGeometry x="589" y="480" width="185" height="60" as="geometry" />
        </mxCell>
        <mxCell id="bT-4DgMdLID0IDF00oh7-20" value="" style="whiteSpace=wrap;html=1;" vertex="1" parent="1">
          <mxGeometry x="601.5" y="580" width="160" height="170" as="geometry" />
        </mxCell>
        <mxCell id="bT-4DgMdLID0IDF00oh7-16" style="edgeStyle=orthogonalEdgeStyle;rounded=0;orthogonalLoop=1;jettySize=auto;html=1;exitX=1;exitY=0.5;exitDx=0;exitDy=0;entryX=0;entryY=0.5;entryDx=0;entryDy=0;" edge="1" parent="1" source="bT-4DgMdLID0IDF00oh7-2" target="bT-4DgMdLID0IDF00oh7-12">
          <mxGeometry relative="1" as="geometry" />
        </mxCell>
        <mxCell id="bT-4DgMdLID0IDF00oh7-21" value="Verwaltungsschale" style="text;strokeColor=none;align=center;fillColor=none;html=1;verticalAlign=middle;whiteSpace=wrap;rounded=0;" vertex="1" parent="1">
          <mxGeometry x="626.5" y="580" width="110" height="30" as="geometry" />
        </mxCell>
        <mxCell id="bT-4DgMdLID0IDF00oh7-22" value="" style="whiteSpace=wrap;html=1;" vertex="1" parent="1">
          <mxGeometry x="616" y="620" width="130" height="100" as="geometry" />
        </mxCell>
        <mxCell id="bT-4DgMdLID0IDF00oh7-23" value="&lt;div&gt;Maschinenzustand&lt;/div&gt;&lt;div&gt;(Submodel)&lt;br&gt;&lt;/div&gt;" style="text;strokeColor=none;align=center;fillColor=none;html=1;verticalAlign=middle;whiteSpace=wrap;rounded=0;" vertex="1" parent="1">
          <mxGeometry x="626.5" y="630" width="110" height="30" as="geometry" />
        </mxCell>
        <mxCell id="bT-4DgMdLID0IDF00oh7-24" value="" style="group" vertex="1" connectable="0" parent="1">
          <mxGeometry x="40" y="500" width="240" height="260" as="geometry" />
        </mxCell>
        <mxCell id="bT-4DgMdLID0IDF00oh7-25" value="[Bild von Grafana]" style="whiteSpace=wrap;html=1;" vertex="1" parent="bT-4DgMdLID0IDF00oh7-24">
          <mxGeometry y="50" width="240" height="210" as="geometry" />
        </mxCell>
        <mxCell id="bT-4DgMdLID0IDF00oh7-26" value="Visualisierung" style="text;strokeColor=none;align=center;fillColor=none;html=1;verticalAlign=middle;whiteSpace=wrap;rounded=0;fontSize=19;fontStyle=1" vertex="1" parent="bT-4DgMdLID0IDF00oh7-24">
          <mxGeometry x="35" width="170" height="60" as="geometry" />
        </mxCell>
      </root>
    </mxGraphModel>
  </diagram>
</mxfile>
